<?xml version="1.0" encoding="UTF-8"?>
<!DOCTYPE svg PUBLIC "-//W3C//DTD SVG 1.1//EN" "http://www.w3.org/Graphics/SVG/1.1/DTD/svg11.dtd">
<svg xmlns="http://www.w3.org/2000/svg" version="1.1" width="512px" height="499px" style="shape-rendering:geometricPrecision; text-rendering:geometricPrecision; image-rendering:optimizeQuality; fill-rule:evenodd; clip-rule:evenodd" xmlns:xlink="http://www.w3.org/1999/xlink">
<g><path style="opacity:0.999" fill="#470137" d="M 76.5,-0.5 C 195.833,-0.5 315.167,-0.5 434.5,-0.5C 476.491,8.82442 502.158,34.4911 511.5,76.5C 511.5,191.5 511.5,306.5 511.5,421.5C 502.167,463.5 476.5,489.167 434.5,498.5C 315.167,498.5 195.833,498.5 76.5,498.5C 34.5,489.167 8.83333,463.5 -0.5,421.5C -0.5,306.5 -0.5,191.5 -0.5,76.5C 8.82442,34.5089 34.4911,8.84224 76.5,-0.5 Z"/></g>
<g><path style="opacity:1" fill="#fe60f5" d="M 389.5,108.5 C 404.745,108.176 419.911,108.509 435,109.5C 435.376,186.845 435.71,264.178 436,341.5C 408.975,352.817 380.808,357.317 351.5,355C 303.387,346.724 278.72,318.224 277.5,269.5C 277.942,234.259 293.275,207.759 323.5,190C 343.96,179.7 365.627,175.867 388.5,178.5C 388.177,155.092 388.511,131.758 389.5,108.5 Z"/></g>
<g><path style="opacity:1" fill="#fd60f4" d="M 76.5,127.5 C 94.1698,127.333 111.836,127.5 129.5,128C 144.525,155.882 159.692,183.715 175,211.5C 189.451,183.429 204.285,155.595 219.5,128C 236.074,127.176 252.574,127.342 269,128.5C 269.667,129.167 269.667,129.833 269,130.5C 247.063,165.374 225.896,200.708 205.5,236.5C 227.482,273.795 249.982,310.795 273,347.5C 273.49,348.793 273.657,350.127 273.5,351.5C 254.83,351.667 236.164,351.5 217.5,351C 209.778,339.061 202.944,326.561 197,313.5C 188.333,298.167 179.667,282.833 171,267.5C 156.676,295.485 141.842,323.151 126.5,350.5C 109.214,351.486 91.8805,351.819 74.5,351.5C 74.3433,350.127 74.51,348.793 75,347.5C 96.9654,311.734 118.799,275.9 140.5,240C 118.849,203.01 97.1828,166.01 75.5,129C 76.056,128.617 76.3893,128.117 76.5,127.5 Z"/></g>
<g><path style="opacity:1" fill="#470137" d="M 386.5,218.5 C 387.492,250.093 387.825,281.76 387.5,313.5C 342.722,318.556 322.555,298.556 327,253.5C 333.197,233.972 346.364,222.139 366.5,218C 373.203,217.287 379.87,217.454 386.5,218.5 Z"/></g>
<g><path style="opacity:1" fill="#811f73" d="M 386.5,218.5 C 387.833,233.986 388.499,249.819 388.5,266C 388.5,282.004 388.167,297.837 387.5,313.5C 387.825,281.76 387.492,250.093 386.5,218.5 Z"/></g>
</svg>
