<svg width="13" height="9" viewBox="0 0 13 9" fill="none" xmlns="http://www.w3.org/2000/svg">
<g clip-path="url(#clip0_4548_103)">
<path d="M0.446799 0.0737391L5.83496 3.00251C6.016 3.10065 6.2502 3.14717 6.48585 3.14717C6.72149 3.14717 6.95569 3.10065 7.13673 3.00251L12.5249 0.0737391C12.8762 -0.117442 13.2081 -0.861084 12.5637 -0.861084H0.408722C-0.235701 -0.861084 0.0962092 -0.117442 0.446799 0.0737391ZM12.688 1.67515L7.13673 4.60247C6.89247 4.73186 6.72149 4.74713 6.48585 4.74713C6.2502 4.74713 6.07922 4.73186 5.83496 4.60247C5.59069 4.47308 0.710459 1.8845 0.311736 1.67442C0.0315513 1.52613 0.034425 1.69987 0.034425 1.83362V7.13507C0.034425 7.44038 0.441051 7.86199 0.752846 7.86199H12.2476C12.5594 7.86199 12.966 7.44038 12.966 7.13507V1.83435C12.966 1.70059 12.9689 1.52686 12.688 1.67515Z" fill="#242732"/>
</g>
<defs>
<clipPath id="clip0_4548_103">
<rect width="13" height="9" rx="2" fill="white"/>
</clipPath>
</defs>
</svg>
