<?xml version="1.0" encoding="UTF-8"?>
<!DOCTYPE svg PUBLIC "-//W3C//DTD SVG 1.1//EN" "http://www.w3.org/Graphics/SVG/1.1/DTD/svg11.dtd">
<svg xmlns="http://www.w3.org/2000/svg" version="1.1" width="2467px" height="1852px" style="shape-rendering:geometricPrecision; text-rendering:geometricPrecision; image-rendering:optimizeQuality; fill-rule:evenodd; clip-rule:evenodd" xmlns:xlink="http://www.w3.org/1999/xlink">
<g><path style="opacity:0.99" fill="#cf2b24" d="M 2375.5,45.5 C 2398.5,45.3334 2421.5,45.5 2444.5,46C 2145.74,90.3707 1859.41,175.704 1585.5,302C 1428.96,374.702 1283.96,464.702 1150.5,572C 1108.67,606.82 1068.34,643.487 1029.5,682C 949.498,682.833 869.498,682.667 789.5,681.5C 860.138,587.695 942.804,506.195 1037.5,437C 1149.05,356.029 1269.39,289.695 1398.5,238C 1551.63,176.961 1709.29,131.294 1871.5,101C 2038.21,69.4205 2206.21,50.9205 2375.5,45.5 Z"/></g>
<g><path style="opacity:0.987" fill="#095da4" d="M 411.5,782.5 C 432.016,781.064 452.016,783.564 471.5,790C 486.958,795.977 499.792,805.477 510,818.5C 510.5,809.506 510.666,800.506 510.5,791.5C 532.167,791.5 553.833,791.5 575.5,791.5C 575.5,832.167 575.5,872.833 575.5,913.5C 553.5,913.5 531.5,913.5 509.5,913.5C 509.132,886.591 498.132,865.425 476.5,850C 460.897,842.443 444.564,840.443 427.5,844C 399.799,852.887 388.633,871.72 394,900.5C 397.871,912.374 405.371,921.207 416.5,927C 425.382,931.275 434.382,935.275 443.5,939C 468.142,947.213 492.475,956.213 516.5,966C 563.618,984.698 586.952,1019.53 586.5,1070.5C 587.527,1106.61 575.527,1137.45 550.5,1163C 528.814,1180.9 503.814,1190.57 475.5,1192C 450.169,1194.78 426.169,1190.45 403.5,1179C 392.741,1172.21 383.574,1163.71 376,1153.5C 375.5,1164.16 375.333,1174.83 375.5,1185.5C 353.833,1185.5 332.167,1185.5 310.5,1185.5C 310.5,1140.17 310.5,1094.83 310.5,1049.5C 332.833,1049.5 355.167,1049.5 377.5,1049.5C 374.32,1071.1 378.486,1091.1 390,1109.5C 404.976,1125.94 423.643,1133.61 446,1132.5C 488.363,1131.81 508.029,1110.48 505,1068.5C 499.454,1053.62 489.621,1042.45 475.5,1035C 469.5,1032 463.5,1029 457.5,1026C 435.619,1018.36 413.619,1011.03 391.5,1004C 372.381,997.777 355.048,988.444 339.5,976C 323.672,957.873 314.838,936.707 313,912.5C 309.309,878.923 317.309,848.59 337,821.5C 356.695,798.57 381.528,785.57 411.5,782.5 Z"/></g>
<g><path style="opacity:0.986" fill="#095da4" d="M 1202.5,782.5 C 1247,778.829 1288.33,788.329 1326.5,811C 1370.23,841.908 1396.06,884.074 1404,937.5C 1409.73,975.898 1406.73,1013.56 1395,1050.5C 1383.34,1083.82 1362.51,1109.65 1332.5,1128C 1361.97,1124 1391.64,1122.5 1421.5,1123.5C 1421.5,1143.5 1421.5,1163.5 1421.5,1183.5C 1377.17,1183.33 1332.83,1183.5 1288.5,1184C 1248.95,1192.97 1209.28,1193.64 1169.5,1186C 1111,1171.83 1070.83,1136.67 1049,1080.5C 1031.1,1025.09 1029.1,969.087 1043,912.5C 1067.19,833.503 1120.35,790.17 1202.5,782.5 Z M 1215.5,840.5 C 1263.86,839.912 1297.03,861.912 1315,906.5C 1326.46,940.261 1330.46,974.928 1327,1010.5C 1325.53,1042.57 1315.53,1071.57 1297,1097.5C 1273.18,1124.22 1243.35,1135.39 1207.5,1131C 1175.25,1127.3 1151.08,1111.47 1135,1083.5C 1121.27,1056.52 1114.27,1027.85 1114,997.5C 1112.35,967.057 1116.35,937.39 1126,908.5C 1141.7,866.941 1171.53,844.274 1215.5,840.5 Z"/></g>
<g><path style="opacity:0.991" fill="#095da4" d="M 79.5,791.5 C 136.167,791.5 192.833,791.5 249.5,791.5C 249.5,810.167 249.5,828.833 249.5,847.5C 233.833,847.5 218.167,847.5 202.5,847.5C 202.5,939.5 202.5,1031.5 202.5,1123.5C 218.167,1123.5 233.833,1123.5 249.5,1123.5C 249.5,1143.5 249.5,1163.5 249.5,1183.5C 192.833,1183.5 136.167,1183.5 79.5,1183.5C 79.5,1163.5 79.5,1143.5 79.5,1123.5C 94.8333,1123.5 110.167,1123.5 125.5,1123.5C 125.5,1031.5 125.5,939.5 125.5,847.5C 110.167,847.5 94.8333,847.5 79.5,847.5C 79.5,828.833 79.5,810.167 79.5,791.5 Z"/></g>
<g><path style="opacity:0.99" fill="#095da4" d="M 648.5,791.5 C 755.167,791.5 861.833,791.5 968.5,791.5C 968.5,836.167 968.5,880.833 968.5,925.5C 946.833,925.5 925.167,925.5 903.5,925.5C 903.5,899.5 903.5,873.5 903.5,847.5C 884.5,847.5 865.5,847.5 846.5,847.5C 846.5,939.5 846.5,1031.5 846.5,1123.5C 863.5,1123.5 880.5,1123.5 897.5,1123.5C 897.5,1143.5 897.5,1163.5 897.5,1183.5C 838.167,1183.5 778.833,1183.5 719.5,1183.5C 719.5,1163.5 719.5,1143.5 719.5,1123.5C 736.5,1123.5 753.5,1123.5 770.5,1123.5C 770.5,1031.5 770.5,939.5 770.5,847.5C 751.167,847.5 731.833,847.5 712.5,847.5C 712.5,873.5 712.5,899.5 712.5,925.5C 691.167,925.5 669.833,925.5 648.5,925.5C 648.5,880.833 648.5,836.167 648.5,791.5 Z"/></g>
<g><path style="opacity:0.987" fill="#095da4" d="M 1472.5,791.5 C 1546.18,791.038 1619.85,791.538 1693.5,793C 1716.93,794.362 1737.93,802.029 1756.5,816C 1768.88,828.269 1776.38,843.102 1779,860.5C 1782.65,882.047 1781.65,903.38 1776,924.5C 1770.29,942.197 1759.46,955.697 1743.5,965C 1734.51,969.662 1725.17,973.329 1715.5,976C 1766.93,987.006 1792.59,1018.84 1792.5,1071.5C 1793.03,1095.71 1787.53,1118.37 1776,1139.5C 1765,1155.16 1750.5,1166.33 1732.5,1173C 1715.35,1179.02 1697.68,1182.36 1679.5,1183C 1610.5,1183.5 1541.5,1183.67 1472.5,1183.5C 1472.5,1163.5 1472.5,1143.5 1472.5,1123.5C 1487.83,1123.5 1503.17,1123.5 1518.5,1123.5C 1518.5,1031.5 1518.5,939.5 1518.5,847.5C 1503.17,847.5 1487.83,847.5 1472.5,847.5C 1472.5,828.833 1472.5,810.167 1472.5,791.5 Z M 1596.5,847.5 C 1617.17,847.333 1637.84,847.5 1658.5,848C 1687.32,852.155 1701.98,868.821 1702.5,898C 1703.51,917.98 1696.17,933.98 1680.5,946C 1673.62,949.738 1666.28,952.072 1658.5,953C 1637.84,953.5 1617.17,953.667 1596.5,953.5C 1596.5,918.167 1596.5,882.833 1596.5,847.5 Z M 1596.5,1008.5 C 1615.5,1008.33 1634.5,1008.5 1653.5,1009C 1700.83,1010.35 1720.33,1034.52 1712,1081.5C 1708.44,1098.8 1698.61,1110.97 1682.5,1118C 1676.06,1120.56 1669.39,1122.22 1662.5,1123C 1640.5,1123.5 1618.5,1123.67 1596.5,1123.5C 1596.5,1085.17 1596.5,1046.83 1596.5,1008.5 Z"/></g>
<g><path style="opacity:0.878" fill="#095da4" d="M 1829.5,791.5 C 1849.25,791.759 1861.42,801.425 1866,820.5C 1868.84,841.687 1860.34,855.854 1840.5,863C 1818.75,864.706 1805.59,854.873 1801,833.5C 1799.38,811.668 1808.88,797.668 1829.5,791.5 Z M 1831.5,799.5 C 1848.45,801.113 1857.78,810.446 1859.5,827.5C 1857.33,846.184 1847,855.351 1828.5,855C 1811.3,848.09 1805.13,835.59 1810,817.5C 1814.01,807.598 1821.17,801.598 1831.5,799.5 Z M 1826.5,815.5 C 1830.27,815.263 1833.94,815.763 1837.5,817C 1838.98,819.592 1838.65,821.925 1836.5,824C 1833.18,824.498 1829.85,824.665 1826.5,824.5C 1826.5,821.5 1826.5,818.5 1826.5,815.5 Z"/></g>
<g><path style="opacity:0.878" fill="#095da4" d="M 1818.5,808.5 C 1826.57,808.137 1834.57,808.637 1842.5,810C 1847.99,815.127 1848.83,820.961 1845,827.5C 1843.41,828.376 1841.91,829.376 1840.5,830.5C 1844.01,835.51 1847.01,840.843 1849.5,846.5C 1846.17,847.833 1842.83,847.833 1839.5,846.5C 1837.46,841.587 1834.8,837.087 1831.5,833C 1829.98,831.991 1828.31,831.491 1826.5,831.5C 1826.5,836.833 1826.5,842.167 1826.5,847.5C 1823.83,847.5 1821.17,847.5 1818.5,847.5C 1818.5,834.5 1818.5,821.5 1818.5,808.5 Z M 1826.5,815.5 C 1826.5,818.5 1826.5,821.5 1826.5,824.5C 1829.85,824.665 1833.18,824.498 1836.5,824C 1838.65,821.925 1838.98,819.592 1837.5,817C 1833.94,815.763 1830.27,815.263 1826.5,815.5 Z"/></g>
<g><path style="opacity:0.982" fill="#cf2b24" d="M 522.5,1307.5 C 555.502,1307.33 588.502,1307.5 621.5,1308C 566.997,1449.85 535.497,1596.68 527,1748.5C 526.526,1771.68 526.36,1794.68 526.5,1817.5C 518.198,1778.55 512.365,1739.22 509,1699.5C 497.476,1568.28 501.976,1437.61 522.5,1307.5 Z"/></g>
<g><path style="opacity:0.966" fill="#095da4" d="M 764.5,1320.5 C 786.109,1317.7 799.609,1326.7 805,1347.5C 806.103,1354.14 806.937,1360.81 807.5,1367.5C 799.167,1367.5 790.833,1367.5 782.5,1367.5C 782.689,1359.61 780.856,1352.28 777,1345.5C 768.139,1340.04 761.472,1342.04 757,1351.5C 756.012,1354.42 755.346,1357.42 755,1360.5C 754.333,1381.83 754.333,1403.17 755,1424.5C 755.164,1431.66 757.664,1437.82 762.5,1443C 774.82,1447.38 781.32,1442.88 782,1429.5C 782.499,1424.18 782.666,1418.84 782.5,1413.5C 790.833,1413.5 799.167,1413.5 807.5,1413.5C 807.687,1424.32 806.52,1434.99 804,1445.5C 798.014,1460.64 786.847,1467.98 770.5,1467.5C 744.338,1467.17 730.838,1453.84 730,1427.5C 729.333,1406.17 729.333,1384.83 730,1363.5C 730.284,1350.5 734.45,1339 742.5,1329C 749.154,1324.16 756.488,1321.33 764.5,1320.5 Z"/></g>
<g><path style="opacity:0.946" fill="#095da4" d="M 1109.5,1323.5 C 1117.17,1323.5 1124.83,1323.5 1132.5,1323.5C 1132.5,1331.17 1132.5,1338.83 1132.5,1346.5C 1124.83,1346.5 1117.17,1346.5 1109.5,1346.5C 1109.5,1338.83 1109.5,1331.17 1109.5,1323.5 Z"/></g>
<g><path style="opacity:0.938" fill="#095da4" d="M 1200.5,1323.5 C 1204.5,1323.5 1208.5,1323.5 1212.5,1323.5C 1212.67,1330.51 1212.5,1337.51 1212,1344.5C 1209.33,1343.17 1206.67,1343.17 1204,1344.5C 1203.5,1349.15 1203.33,1353.82 1203.5,1358.5C 1206.5,1358.5 1209.5,1358.5 1212.5,1358.5C 1212.5,1364.83 1212.5,1371.17 1212.5,1377.5C 1209.5,1377.5 1206.5,1377.5 1203.5,1377.5C 1203.5,1406.5 1203.5,1435.5 1203.5,1464.5C 1195.5,1464.5 1187.5,1464.5 1179.5,1464.5C 1179.5,1435.5 1179.5,1406.5 1179.5,1377.5C 1176.83,1377.5 1174.17,1377.5 1171.5,1377.5C 1171.5,1371.17 1171.5,1364.83 1171.5,1358.5C 1174.17,1358.5 1176.83,1358.5 1179.5,1358.5C 1178.88,1349.24 1180.05,1340.24 1183,1331.5C 1187.73,1326.21 1193.57,1323.54 1200.5,1323.5 Z"/></g>
<g><path style="opacity:0.946" fill="#095da4" d="M 1251.5,1323.5 C 1259.17,1323.5 1266.83,1323.5 1274.5,1323.5C 1274.5,1331.17 1274.5,1338.83 1274.5,1346.5C 1266.83,1346.5 1259.17,1346.5 1251.5,1346.5C 1251.5,1338.83 1251.5,1331.17 1251.5,1323.5 Z"/></g>
<g><path style="opacity:0.963" fill="#095da4" d="M 1469.5,1323.5 C 1477.17,1323.5 1484.83,1323.5 1492.5,1323.5C 1492.5,1370.5 1492.5,1417.5 1492.5,1464.5C 1484.83,1464.5 1477.17,1464.5 1469.5,1464.5C 1469.66,1461.81 1469.5,1459.15 1469,1456.5C 1462.48,1466.01 1453.65,1469.17 1442.5,1466C 1433.68,1461.16 1428.85,1453.66 1428,1443.5C 1427.33,1421.83 1427.33,1400.17 1428,1378.5C 1431.88,1357.48 1443.71,1350.98 1463.5,1359C 1465.71,1360.87 1467.54,1363.04 1469,1365.5C 1469.5,1351.5 1469.67,1337.5 1469.5,1323.5 Z M 1455.5,1375.5 C 1463.66,1374.48 1468.16,1378.15 1469,1386.5C 1469.67,1402.83 1469.67,1419.17 1469,1435.5C 1468.86,1441.82 1465.86,1445.82 1460,1447.5C 1458.1,1447.39 1456.44,1446.72 1455,1445.5C 1453.09,1442.78 1451.76,1439.78 1451,1436.5C 1450.33,1418.83 1450.33,1401.17 1451,1383.5C 1451.75,1380.32 1453.25,1377.65 1455.5,1375.5 Z"/></g>
<g><path style="opacity:0.975" fill="#095da4" d="M 1595.5,1323.5 C 1622.17,1323.5 1648.83,1323.5 1675.5,1323.5C 1675.5,1330.83 1675.5,1338.17 1675.5,1345.5C 1666.17,1345.5 1656.83,1345.5 1647.5,1345.5C 1647.5,1385.17 1647.5,1424.83 1647.5,1464.5C 1639.5,1464.5 1631.5,1464.5 1623.5,1464.5C 1623.5,1424.83 1623.5,1385.17 1623.5,1345.5C 1614.17,1345.5 1604.83,1345.5 1595.5,1345.5C 1595.5,1338.17 1595.5,1330.83 1595.5,1323.5 Z"/></g>
<g><path style="opacity:0.963" fill="#095da4" d="M 1037.5,1329.5 C 1045.17,1329.5 1052.83,1329.5 1060.5,1329.5C 1060.5,1339.17 1060.5,1348.83 1060.5,1358.5C 1063.83,1358.5 1067.17,1358.5 1070.5,1358.5C 1070.5,1364.5 1070.5,1370.5 1070.5,1376.5C 1067.17,1376.5 1063.83,1376.5 1060.5,1376.5C 1060.21,1398.86 1060.54,1421.19 1061.5,1443.5C 1064.46,1444.16 1067.46,1444.49 1070.5,1444.5C 1070.5,1451.17 1070.5,1457.83 1070.5,1464.5C 1060.72,1466.65 1051.38,1465.48 1042.5,1461C 1040.96,1459.42 1039.79,1457.59 1039,1455.5C 1037.53,1429.23 1037.03,1402.9 1037.5,1376.5C 1034.5,1376.5 1031.5,1376.5 1028.5,1376.5C 1028.5,1370.5 1028.5,1364.5 1028.5,1358.5C 1031.5,1358.5 1034.5,1358.5 1037.5,1358.5C 1037.5,1348.83 1037.5,1339.17 1037.5,1329.5 Z"/></g>
<g><path style="opacity:0.94" fill="#095da4" d="M 1906.5,1329.5 C 1914.5,1329.5 1922.5,1329.5 1930.5,1329.5C 1930.5,1339.17 1930.5,1348.83 1930.5,1358.5C 1933.5,1358.5 1936.5,1358.5 1939.5,1358.5C 1939.5,1364.5 1939.5,1370.5 1939.5,1376.5C 1936.5,1376.5 1933.5,1376.5 1930.5,1376.5C 1930.33,1398.5 1930.5,1420.5 1931,1442.5C 1933.56,1444.18 1936.4,1444.85 1939.5,1444.5C 1939.5,1451.17 1939.5,1457.83 1939.5,1464.5C 1932.13,1465.84 1924.79,1465.67 1917.5,1464C 1913.17,1462.43 1910.01,1459.59 1908,1455.5C 1906.55,1429.21 1906.05,1402.88 1906.5,1376.5C 1903.5,1376.5 1900.5,1376.5 1897.5,1376.5C 1897.5,1370.5 1897.5,1364.5 1897.5,1358.5C 1900.5,1358.5 1903.5,1358.5 1906.5,1358.5C 1906.5,1348.83 1906.5,1339.17 1906.5,1329.5 Z"/></g>
<g><path style="opacity:0.963" fill="#095da4" d="M 872.5,1355.5 C 882.605,1354.49 892.271,1355.99 901.5,1360C 908.265,1364.69 912.099,1371.19 913,1379.5C 914.284,1391.8 914.784,1404.13 914.5,1416.5C 899.833,1416.5 885.167,1416.5 870.5,1416.5C 870.334,1423.51 870.5,1430.51 871,1437.5C 873.779,1448.06 879.445,1450.06 888,1443.5C 890.177,1438.41 891.01,1433.07 890.5,1427.5C 898.5,1427.5 906.5,1427.5 914.5,1427.5C 914.917,1459.14 899.584,1471.64 868.5,1465C 855.71,1459.96 848.877,1450.46 848,1436.5C 847.333,1418.17 847.333,1399.83 848,1381.5C 850.59,1367.41 858.757,1358.75 872.5,1355.5 Z M 875.5,1375.5 C 878.85,1375.33 882.183,1375.5 885.5,1376C 888.953,1377.73 890.786,1380.56 891,1384.5C 891.499,1388.82 891.666,1393.15 891.5,1397.5C 884.5,1397.5 877.5,1397.5 870.5,1397.5C 870.334,1392.49 870.501,1387.49 871,1382.5C 871.904,1379.77 873.404,1377.43 875.5,1375.5 Z"/></g>
<g><path style="opacity:0.963" fill="#095da4" d="M 1344.5,1355.5 C 1353.77,1354.74 1362.77,1355.91 1371.5,1359C 1380.33,1365.1 1384.83,1373.6 1385,1384.5C 1385.5,1395.16 1385.67,1405.83 1385.5,1416.5C 1370.83,1416.5 1356.17,1416.5 1341.5,1416.5C 1341.33,1422.84 1341.5,1429.18 1342,1435.5C 1342.07,1442.35 1345.4,1446.35 1352,1447.5C 1354.7,1447.27 1357.03,1446.27 1359,1444.5C 1361.38,1439.09 1362.55,1433.42 1362.5,1427.5C 1370.17,1427.5 1377.83,1427.5 1385.5,1427.5C 1387.07,1456.76 1373.41,1469.6 1344.5,1466C 1332.25,1463.76 1324.42,1456.59 1321,1444.5C 1320.06,1440.89 1319.39,1437.22 1319,1433.5C 1318.08,1414.79 1318.41,1396.13 1320,1377.5C 1323.65,1365.01 1331.82,1357.68 1344.5,1355.5 Z M 1351.5,1374.5 C 1356.75,1374.87 1360.25,1377.54 1362,1382.5C 1362.5,1387.49 1362.67,1392.49 1362.5,1397.5C 1355.5,1397.5 1348.5,1397.5 1341.5,1397.5C 1341.21,1391.76 1341.71,1386.09 1343,1380.5C 1344.94,1377.12 1347.78,1375.12 1351.5,1374.5 Z"/></g>
<g><path style="opacity:0.964" fill="#095da4" d="M 1723.5,1355.5 C 1732.77,1354.74 1741.77,1355.91 1750.5,1359C 1759.58,1364.98 1764.08,1373.48 1764,1384.5C 1764.5,1395.16 1764.67,1405.83 1764.5,1416.5C 1749.83,1416.5 1735.17,1416.5 1720.5,1416.5C 1720.33,1422.84 1720.5,1429.18 1721,1435.5C 1721.07,1442.35 1724.4,1446.35 1731,1447.5C 1735.75,1447.42 1738.75,1445.08 1740,1440.5C 1740.92,1436.21 1741.42,1431.88 1741.5,1427.5C 1749.17,1427.5 1756.83,1427.5 1764.5,1427.5C 1766.08,1456.76 1752.41,1469.59 1723.5,1466C 1711.25,1463.75 1703.42,1456.59 1700,1444.5C 1699.06,1440.89 1698.39,1437.22 1698,1433.5C 1697.08,1415.13 1697.42,1396.79 1699,1378.5C 1702.24,1365.43 1710.4,1357.76 1723.5,1355.5 Z M 1730.5,1374.5 C 1734.28,1374.97 1737.44,1376.64 1740,1379.5C 1741.36,1385.41 1741.86,1391.41 1741.5,1397.5C 1734.5,1397.5 1727.5,1397.5 1720.5,1397.5C 1720.21,1391.76 1720.71,1386.09 1722,1380.5C 1723.94,1377.12 1726.78,1375.12 1730.5,1374.5 Z"/></g>
<g><path style="opacity:0.952" fill="#095da4" d="M 1833.5,1355.5 C 1857.71,1355.22 1869.37,1367.22 1868.5,1391.5C 1860.5,1391.5 1852.5,1391.5 1844.5,1391.5C 1846.24,1379.07 1841.24,1374.24 1829.5,1377C 1825.2,1383.16 1826.2,1388.49 1832.5,1393C 1842.91,1400.07 1852.74,1407.91 1862,1416.5C 1869.77,1428.73 1870.44,1441.4 1864,1454.5C 1860.94,1459.79 1856.44,1463.29 1850.5,1465C 1838.37,1469.02 1826.7,1468.02 1815.5,1462C 1805.27,1453.16 1801.27,1442 1803.5,1428.5C 1811.17,1428.5 1818.83,1428.5 1826.5,1428.5C 1825.89,1434.43 1826.72,1440.1 1829,1445.5C 1837.18,1450.66 1842.35,1448.49 1844.5,1439C 1844.34,1435.17 1843,1431.84 1840.5,1429C 1830.03,1422.01 1820.2,1414.18 1811,1405.5C 1804.36,1395.36 1802.36,1384.36 1805,1372.5C 1808,1364.84 1813.5,1360 1821.5,1358C 1825.64,1357.16 1829.64,1356.33 1833.5,1355.5 Z"/></g>
<g><path style="opacity:0.964" fill="#095da4" d="M 2001.5,1355.5 C 2012.17,1354.2 2022.17,1356.04 2031.5,1361C 2038.26,1366.92 2041.76,1374.42 2042,1383.5C 2042.5,1394.49 2042.67,1405.49 2042.5,1416.5C 2027.83,1416.5 2013.17,1416.5 1998.5,1416.5C 1998.33,1422.51 1998.5,1428.51 1999,1434.5C 1998.77,1441.74 2002.1,1446.07 2009,1447.5C 2013.75,1447.42 2016.75,1445.08 2018,1440.5C 2019.08,1436.23 2019.58,1431.9 2019.5,1427.5C 2027.17,1427.5 2034.83,1427.5 2042.5,1427.5C 2044.08,1456.76 2030.41,1469.59 2001.5,1466C 1989.25,1463.75 1981.42,1456.59 1978,1444.5C 1977.01,1440.56 1976.34,1436.56 1976,1432.5C 1975.08,1414.46 1975.42,1396.46 1977,1378.5C 1980.24,1365.43 1988.4,1357.76 2001.5,1355.5 Z M 2008.5,1374.5 C 2012.28,1374.97 2015.44,1376.64 2018,1379.5C 2019.36,1385.41 2019.86,1391.41 2019.5,1397.5C 2012.5,1397.5 2005.5,1397.5 1998.5,1397.5C 1998.21,1391.76 1998.71,1386.09 2000,1380.5C 2001.94,1377.12 2004.78,1375.12 2008.5,1374.5 Z"/></g>
<g><path style="opacity:0.935" fill="#095da4" d="M 996.5,1356.5 C 998.167,1356.5 999.833,1356.5 1001.5,1356.5C 1001.5,1366.17 1001.5,1375.83 1001.5,1385.5C 995.811,1385.09 990.478,1386.26 985.5,1389C 983.106,1390.95 981.606,1393.45 981,1396.5C 980.5,1419.16 980.333,1441.83 980.5,1464.5C 972.5,1464.5 964.5,1464.5 956.5,1464.5C 956.5,1429.17 956.5,1393.83 956.5,1358.5C 964.167,1358.5 971.833,1358.5 979.5,1358.5C 979.334,1363.51 979.501,1368.51 980,1373.5C 983.045,1365.29 988.545,1359.62 996.5,1356.5 Z"/></g>
<g><path style="opacity:0.96" fill="#095da4" d="M 2124.5,1356.5 C 2126.5,1356.5 2128.5,1356.5 2130.5,1356.5C 2130.5,1366.17 2130.5,1375.83 2130.5,1385.5C 2124.47,1384.97 2118.8,1386.13 2113.5,1389C 2111.35,1391.47 2109.85,1394.3 2109,1397.5C 2108.5,1419.83 2108.33,1442.16 2108.5,1464.5C 2100.83,1464.5 2093.17,1464.5 2085.5,1464.5C 2085.5,1429.17 2085.5,1393.83 2085.5,1358.5C 2092.83,1358.5 2100.17,1358.5 2107.5,1358.5C 2107.33,1363.84 2107.5,1369.18 2108,1374.5C 2110.62,1365.72 2116.12,1359.72 2124.5,1356.5 Z"/></g>
<g><path style="opacity:0.956" fill="#095da4" d="M 1109.5,1358.5 C 1117.17,1358.5 1124.83,1358.5 1132.5,1358.5C 1132.5,1393.83 1132.5,1429.17 1132.5,1464.5C 1124.83,1464.5 1117.17,1464.5 1109.5,1464.5C 1109.5,1429.17 1109.5,1393.83 1109.5,1358.5 Z"/></g>
<g><path style="opacity:0.956" fill="#095da4" d="M 1251.5,1358.5 C 1259.17,1358.5 1266.83,1358.5 1274.5,1358.5C 1274.5,1393.83 1274.5,1429.17 1274.5,1464.5C 1266.83,1464.5 1259.17,1464.5 1251.5,1464.5C 1251.5,1429.17 1251.5,1393.83 1251.5,1358.5 Z"/></g>
</svg>
