<svg xmlns="http://www.w3.org/2000/svg" width="12" height="12" viewBox="0 0 12 12" fill="none">
<g clip-path="url(#clip0_4564_206)">
<path d="M2.79324 3.86053H0.384222C0.277306 3.86053 0.190674 3.94721 0.190674 4.05408V11.7932C0.190674 11.9001 0.277306 11.9868 0.384222 11.9868H2.79324C2.90016 11.9868 2.98679 11.9001 2.98679 11.7932V4.05408C2.98679 3.94721 2.90016 3.86053 2.79324 3.86053Z" fill="#2a3140"/>
<path d="M1.58965 0.0132141C0.71311 0.0132141 0 0.72555 0 1.60112C0 2.47708 0.71311 3.18969 1.58965 3.18969C2.4655 3.18969 3.17803 2.47705 3.17803 1.60112C3.17806 0.72555 2.4655 0.0132141 1.58965 0.0132141Z" fill="#2a3140"/>
<path d="M8.92075 3.66818C7.9532 3.66818 7.23796 4.08412 6.80414 4.55672V4.05408C6.80414 3.9472 6.71751 3.86053 6.61059 3.86053H4.30353C4.19662 3.86053 4.10999 3.9472 4.10999 4.05408V11.7932C4.10999 11.9001 4.19662 11.9868 4.30353 11.9868H6.70729C6.81421 11.9868 6.90084 11.9001 6.90084 11.7932V7.96414C6.90084 6.67383 7.25132 6.17115 8.15077 6.17115C9.13036 6.17115 9.20821 6.97701 9.20821 8.03053V11.7933C9.20821 11.9002 9.29484 11.9868 9.40175 11.9868H11.8064C11.9133 11.9868 11.9999 11.9002 11.9999 11.7933V7.54821C11.9999 5.62956 11.6341 3.66818 8.92075 3.66818Z" fill="#2a3140"/>
</g>
<defs fill="#2a3140">
<clipPath id="clip0_4564_206" fill="#2a3140">
<rect width="12" height="12" fill="#2a3140"/>
</clipPath>
</defs>
</svg>