<svg xmlns="http://www.w3.org/2000/svg" width="12" height="12" viewBox="0 0 12 12" fill="none">
<g clip-path="url(#clip0_4548_97)">
<path d="M10.7001 5.67464H11.9501C11.9501 2.46839 9.52947 0.0502625 6.31885 0.0502625V1.30026C8.8576 1.30026 10.7001 3.13964 10.7001 5.67464Z" fill="#2a3140"/>
<path d="M6.32501 3.80005C7.63938 3.80005 8.20001 4.36067 8.20001 5.67505H9.45001C9.45001 3.65942 8.34063 2.55005 6.32501 2.55005V3.80005ZM8.46376 7.20192C8.34366 7.09277 8.18585 7.03455 8.02363 7.03956C7.86142 7.04458 7.70751 7.11243 7.59438 7.2288L6.09876 8.76692C5.73876 8.69817 5.01501 8.47255 4.27001 7.72942C3.52501 6.9838 3.29938 6.25817 3.23251 5.90067L4.76938 4.40442C4.88589 4.29138 4.95384 4.13743 4.95886 3.97517C4.96387 3.81292 4.90556 3.65507 4.79626 3.53505L2.48688 0.995671C2.37753 0.875269 2.22555 0.802236 2.06323 0.792083C1.9009 0.78193 1.741 0.835457 1.61751 0.941296L0.261255 2.10442C0.1532 2.21287 0.088705 2.3572 0.0800053 2.51005C0.0706303 2.6663 -0.10812 6.36755 2.76188 9.2388C5.26563 11.7419 8.40188 11.925 9.26563 11.925C9.39188 11.925 9.46938 11.9213 9.49001 11.92C9.64283 11.9115 9.78708 11.8467 9.89501 11.7382L11.0575 10.3813C11.1634 10.2579 11.2171 10.098 11.207 9.9357C11.197 9.77338 11.1241 9.62135 11.0038 9.51192L8.46376 7.20192Z" fill="#2a3140"/>
</g>
<defs fill="#2a3140">
<clipPath id="clip0_4548_97" fill="#2a3140">
<rect width="12" height="12" rx="1" fill="#2a3140"/>
</clipPath>
</defs>
</svg>